<svg width="334" height="334" viewBox="0 0 334 334" fill="none" xmlns="http://www.w3.org/2000/svg">
<circle cx="277.288" cy="260.462" r="28.9674" fill="#2DA093"/>
<path d="M239.556 172.34C239.556 181.851 237.683 191.268 234.043 200.054C230.404 208.84 225.07 216.823 218.345 223.548C211.62 230.273 203.637 235.607 194.851 239.247C186.065 242.886 176.647 244.759 167.137 244.759C157.627 244.759 148.21 242.886 139.424 239.247C130.638 235.607 122.654 230.273 115.93 223.548C109.205 216.823 103.871 208.84 100.231 200.054C96.5919 191.268 94.7187 181.851 94.7188 172.34L139.601 172.34C139.601 175.957 140.313 179.537 141.697 182.878C143.081 186.219 145.109 189.255 147.666 191.812C150.223 194.369 153.259 196.397 156.6 197.781C159.94 199.165 163.521 199.877 167.137 199.877C170.753 199.877 174.334 199.165 177.675 197.781C181.016 196.397 184.052 194.369 186.609 191.812C189.166 189.255 191.194 186.219 192.578 182.878C193.962 179.537 194.674 175.957 194.674 172.34H239.556Z" fill="#FF965B"/>
<path d="M239.556 82.3893C239.556 91.8994 237.683 101.316 234.043 110.103C230.404 118.889 225.07 126.872 218.345 133.597C211.62 140.322 203.637 145.656 194.851 149.295C186.065 152.935 176.647 154.808 167.137 154.808C157.627 154.808 148.21 152.935 139.424 149.295C130.638 145.656 122.654 140.322 115.93 133.597C109.205 126.872 103.871 118.889 100.231 110.103C96.5919 101.316 94.7187 91.8994 94.7188 82.3893L139.601 82.3893C139.601 86.0054 140.313 89.5862 141.697 92.9271C143.081 96.268 145.109 99.3036 147.666 101.861C150.223 104.418 153.259 106.446 156.6 107.83C159.94 109.214 163.521 109.926 167.137 109.926C170.753 109.926 174.334 109.214 177.675 107.83C181.016 106.446 184.052 104.418 186.609 101.861C189.166 99.3036 191.194 96.268 192.578 92.9271C193.962 89.5862 194.674 86.0054 194.674 82.3893H239.556Z" fill="#2DA093"/>
</svg>
