<svg xmlns="http://www.w3.org/2000/svg" version="1.1" xmlns:xlink="http://www.w3.org/1999/xlink" xmlns:svgjs="http://svgjs.dev/svgjs" width="1000" height="1000" viewBox="0 0 1000 1000"><rect width="1000" height="1000" fill="#000000"></rect><g transform="matrix(0.7,0,0,0.7,149.57575757575756,475.5385795454546)"><svg viewBox="0 0 396 28" data-background-color="#ffffff" preserveAspectRatio="xMidYMid meet" height="70" width="1000" xmlns="http://www.w3.org/2000/svg" xmlns:xlink="http://www.w3.org/1999/xlink"><g id="tight-bounds" transform="matrix(1,0,0,1,0.2400000000000091,-0.022045454545462917)"><svg viewBox="0 0 395.52 28.044090909090908" height="28.044090909090908" width="395.52"><g><svg viewBox="0 0 395.52 28.044090909090908" height="28.044090909090908" width="395.52"><g><svg viewBox="0 0 395.52 28.044090909090908" height="28.044090909090908" width="395.52"><g><svg viewBox="0 0 395.52 28.044090909090908" height="28.044090909090908" width="395.52"><g><svg viewBox="0 0 395.52 28.044090909090908" height="28.044090909090908" width="395.52"><g transform="matrix(1,0,0,1,0,0)"><svg width="395.52" viewBox="4 -29.450000762939453 421.3800048828125 29.950000762939453" height="28.044090909090908" data-palette-color="#010c80"><g class="undefined-text-0" data-fill-palette-color="primary" id="text-0"><path d="M11.1 0L4.5 0 4.5-25.4 4-29.45 26.15-29.45Q29.35-29.45 31.18-28.6 33-27.75 33.88-26.38 34.75-25 35-23.45 35.25-21.9 35.25-20.5L35.25-20.5 35.25-17.55Q35.25-16.4 34.9-14.98 34.55-13.55 33.6-12.23 32.65-10.9 30.85-10.03 29.05-9.15 26.15-9.15L26.15-9.15 21.05-9.15Q17.9-9.15 15.18-9.3 12.45-9.45 11.1-9.55L11.1-9.55 11.1 0ZM11.1-24.65L11.1-13.95 24.7-13.95Q26.95-13.95 27.8-15.05 28.65-16.15 28.65-17.7L28.65-17.7 28.65-20.85Q28.65-22.45 27.8-23.55 26.95-24.65 24.75-24.65L24.75-24.65 11.1-24.65ZM74.2 0.5L74.2 0.5Q72.2 0.5 70.27-0.13 68.35-0.75 65.9-3.2L65.9-3.2 62.3-6.8Q60.1-9.05 57.47-10.1 54.85-11.15 50.9-11.15L50.9-11.15 49.35-11.15 49.35 0 42.75 0 42.75-25.4 42.25-29.45 64.4-29.45Q67.6-29.45 69.42-28.6 71.25-27.75 72.12-26.38 73-25 73.25-23.45 73.5-21.9 73.5-20.5L73.5-20.5 73.5-19.55Q73.5-18.45 73.2-17.1 72.9-15.75 72.05-14.45 71.2-13.15 69.62-12.25 68.05-11.35 65.5-11.2L65.5-11.2Q66.15-10.85 67.15-10.13 68.15-9.4 69.22-8.55 70.3-7.7 71.2-7 72.1-6.3 72.6-6L72.6-6Q74.4-4.95 75.8-4.55 77.2-4.15 78.1-4.1 79-4.05 79.15-4.05L79.15-4.05 78.15 0Q77.7 0.15 76.65 0.33 75.6 0.5 74.2 0.5ZM56.85-15.7L56.85-15.7Q58.75-15.7 60.25-15.78 61.75-15.85 62.95-15.95L62.95-15.95Q65.15-16.2 66.02-17.18 66.9-18.15 66.9-19.7L66.9-19.7 66.9-20.85Q66.9-22.45 66.05-23.55 65.2-24.65 63-24.65L63-24.65 49.35-24.65 49.35-15.95Q51.55-15.8 53.4-15.75 55.25-15.7 56.85-15.7ZM106.9 0L92.3 0Q88.8 0 86.8-1 84.8-2 83.97-4 83.15-6 83.15-8.95L83.15-8.95 83.15-20.5Q83.15-23.4 83.95-25.38 84.75-27.35 86.75-28.38 88.75-29.4 92.3-29.4L92.3-29.4 106.9-29.4Q110.4-29.4 112.37-28.38 114.35-27.35 115.17-25.38 116-23.4 116-20.5L116-20.5 116-8.95Q116-4.55 114.05-2.27 112.1 0 106.9 0L106.9 0ZM93.75-4.8L93.75-4.8 105.5-4.8Q107.35-4.8 108.37-5.75 109.4-6.7 109.4-8.35L109.4-8.35 109.4-21.1Q109.4-22.55 108.35-23.58 107.3-24.6 105.5-24.6L105.5-24.6 93.75-24.6Q91.95-24.6 90.85-23.65 89.75-22.7 89.75-21.1L89.75-21.1 89.75-8.35Q89.75-6.65 90.82-5.73 91.9-4.8 93.75-4.8ZM139.54 0L133.09 0Q129.49 0 126.52-0.18 123.54-0.35 121.77-0.8 119.99-1.25 119.99-2.05L119.99-2.05 122.49-5.9Q123.94-5.25 126.52-5.03 129.09-4.8 133.34-4.8L133.34-4.8 138.14-4.8Q140.49-4.8 141.24-5.93 141.99-7.05 141.99-8.35L141.99-8.35 141.99-25.4 141.59-29.4 148.59-29.4 148.59-8.95Q148.59-6.45 147.97-4.4 147.34-2.35 145.42-1.18 143.49 0 139.54 0L139.54 0ZM183.89 0L156.59 0 156.59-29.4 187.69-29.4 187.69-24.6 163.19-24.6 163.19-17.7 181.89-17.7 181.89-12.75 163.19-12.75 163.19-4.8 187.89-4.8 189.89-0.55Q189.89-0.35 188.54-0.18 187.19 0 183.89 0L183.89 0ZM217.44 0L203.54 0Q199.99 0 197.99-1 195.99-2 195.19-4 194.39-6 194.39-8.95L194.39-8.95 194.39-20.1Q194.39-24.9 196.54-27.18 198.69-29.45 203.54-29.45L203.54-29.45 218.59-29.45Q222.04-29.45 223.86-29.08 225.69-28.7 225.69-28.3L225.69-28.3 224.69-24.15Q223.84-24.3 219.66-24.48 215.49-24.65 207.54-24.65L207.54-24.65 204.99-24.65Q200.99-24.65 200.99-21.1L200.99-21.1 200.99-8.35Q200.99-6.65 201.86-5.73 202.74-4.8 204.99-4.8L204.99-4.8 207.04-4.8Q215.34-4.8 219.91-4.98 224.49-5.15 225.59-5.35L225.59-5.35 227.64-2.05Q227.64-1.8 226.81-1.3 225.99-0.8 223.79-0.4 221.59 0 217.44 0L217.44 0ZM249.29 0L242.69 0 242.64-24.65 229.64-24.65 229.64-29.45 262.34-29.45 262.34-24.65 249.29-24.65 249.29 0Z" fill="#ffffff" data-fill-palette-color="primary"></path><path d="M273.44 0L266.84 0 266.84-25.4 266.34-29.4 273.54-29.4 290.54-11.6 292.49-8.9 293.04-8.9 293.04-29.4 299.64-29.4 299.64 0 293.29 0 275.89-18.1 273.94-20.45 273.44-20.45 273.44 0ZM310.94 0L303.64 0 318.29-29.4 328.14-29.4 342.74 0 335.04 0 332.09-6.35 314.19-6.35 310.94 0ZM322.89-24.9L315.99-11.25 330.24-11.25 323.39-24.9 322.89-24.9ZM353.84 0L347.24 0 347.24-25.4 346.74-29.4 354.34-29.4 365.64-9.4 377.34-29.4 384.09-29.4 384.09 0 377.49 0 377.49-18.65 376.94-18.65 374.99-14.3 368.69-3 362.64-3 356.34-14.3 354.34-18.65 353.84-18.65 353.84 0ZM419.38 0L392.08 0 392.08-29.4 423.18-29.4 423.18-24.6 398.68-24.6 398.68-17.7 417.38-17.7 417.38-12.75 398.68-12.75 398.68-4.8 423.38-4.8 425.38-0.55Q425.38-0.35 424.03-0.18 422.68 0 419.38 0L419.38 0Z" fill="#ffffff" data-fill-palette-color="secondary"></path></g></svg></g></svg></g></svg></g></svg></g></svg></g><defs></defs></svg><rect width="395.52" height="28.044090909090908" fill="none" stroke="none" visibility="hidden"></rect></g></svg></g></svg>